<svg version="1" xmlns="http://www.w3.org/2000/svg" width="1365.333" height="1365.333" viewBox="0 0 1024.000000 1024.000000"><path d="M418.9 1.1c-21.4 3.1-40.8 17-50.4 35.9-5.7 11.3-6.6 15.4-7.5 34.5-1.3 25.3-5.1 38.3-16.1 54.6-5.4 8.2-26.5 29.2-34.8 34.8-15.5 10.6-28.9 14.7-52.1 16.2-40.9 2.6-63.2-5.8-90.7-34.4-21.8-22.6-28.6-38.3-30.3-69.7-1-18.9-2.5-25.2-8.3-36.4-4.8-9.3-15.3-20.5-24.2-25.9C84.7-1.1 59-2.2 38.5 7.9c-17.8 8.8-31 25-36.2 44.2C0 60.6.1 77.3 2.4 86c5 18.5 18.6 35.1 35.7 43.4 11.4 5.5 22.1 7.6 38.9 7.6 19.5 0 35.9 4.4 50.9 13.7 9.1 5.6 33.6 29.6 39.6 38.8 10.3 15.7 15.5 35.1 15.5 57.6 0 29.8 22.1 57.5 51.1 64.4 9.3 2.2 26.8 2 36.1-.4 23.2-6 41-22.7 48.5-45.6 2.4-7.3 2.6-9.6 2.8-26.5.2-20.4 1.3-26.4 7-40.2 5-11.8 11.8-21.2 24.5-33.8 13.5-13.4 22.7-19.4 38.2-24.8l10.3-3.6 20.5-.4c29.9-.6 43.3 2.2 61.3 12.9 8.4 5 29.5 25.1 36.3 34.6 11 15.3 15.3 29.5 16.4 54.8.9 20.6 2.3 27.4 8.1 38.6 7.7 14.7 21.3 26.4 37.4 32.2 10.7 3.9 26.5 4.8 37.9 2.3 20-4.5 38.2-18.9 46.7-37.1 5-10.7 6.1-16.5 6.4-35.5.3-19.3 1.8-27.1 7.3-39.2 4.7-10.4 10.7-18.4 23.1-31.1 22.8-23.3 38-30 71.1-31.7 19.4-1 26.2-2.4 36.5-7.5 13.2-6.4 23.7-16.9 30.4-30.2 10.7-21 9.1-48.2-3.9-67.7-12.6-18.8-31.5-29.4-54-30.3-13.3-.6-22.3 1.2-33.8 6.8-11.1 5.4-24 17.8-29.4 28.4-5.8 11.2-6.9 16.3-7.8 35-1 19.9-2.9 30-7.5 40.8-5.5 12.9-9.4 18.5-22 31.5-17.8 18.4-29.8 26.1-48.4 30.9-8.6 2.2-11.6 2.4-29.3 2.4-22.9 0-31.5-1.5-45.4-8-11.6-5.5-16.3-8.9-29.3-21.5-13.1-12.8-18.6-20-24.1-31.9-6-12.7-7.9-22.3-8.9-43.2-.7-15.6-1.2-19.1-3.5-26-10.7-31.4-41.7-50.3-74.7-45.4z"/><path d="M236.4 3c-22.9 6-40.7 22.8-48.1 45.5-2.2 6.7-2.6 9.9-2.6 19.5-.1 20.1 5.8 34.5 19.8 48.5 13.5 13.5 28.7 19.9 47.5 19.9 12.6 0 20.2-1.8 32-7.6 16-7.8 29.7-24.8 34.6-42.8 2.3-8.6 2.4-25.2.1-34-6.3-24-25.3-42.9-49.5-49.1-9.8-2.5-24.1-2.5-33.8.1zM588.4 3c-22.9 6-40.9 23-48 45.4-11.5 36.6 8.9 74.2 46.6 85.7 9.5 2.9 25.2 3.2 35 .6 19.6-5.1 36-18.4 44.3-35.8 5.7-11.9 7.1-17.9 7.1-30.4-.1-25.8-13.6-47.9-36.6-60-14-7.4-33.1-9.5-48.4-5.5zM939.2 2.5c-14 3.1-28.6 12.4-38.4 24.6-10 12.6-13.6 24-14.8 47.9-1.2 22.4-4.3 32.6-14.7 48.9-6 9.3-25.6 29.4-35.9 36.7-14.4 10.3-29.4 15-51.6 16.4-8.1.5-17.5 1.7-21 2.5-19.4 5.1-35.4 18.1-44.3 36-4.6 9.3-6.5 18-6.5 29.6 0 19.4 6.1 34 20 47.9 13.7 13.8 28.5 20 48.1 20 11.8 0 22.2-2.5 32.2-7.7 9.8-5.1 22.9-18.2 27.9-27.8 6.1-11.8 6.9-15.9 7.8-39 .9-22.4 2.2-29.8 7.5-42.6 4.2-10.1 12.5-21.7 22.2-31 10.2-9.8 18.5-15.7 29-20.6 13.2-6.1 20.5-7.5 41.3-7.8 21.2-.3 26-1.3 39-7.7 6.6-3.3 10.3-6.1 16.5-12.3 8.9-8.9 13.8-17.1 17.6-29.5 2.9-9.5 3.2-25.3.6-34.9-6.5-24.1-25.5-43-49.3-49.1-9.1-2.4-23.6-2.5-33.2-.5zM420.2 180.1c-15.4 1.8-28.4 8.1-40.2 19.9-26.3 26.2-26.4 69-.1 95 8.7 8.5 15.7 13 26.3 16.7 6.1 2.2 10.1 2.7 24.8 3.5 34.4 1.7 50.1 8.1 72.3 29.7 14.2 13.7 20.5 21.7 25.7 32.6 7.5 15.4 8.5 21 8.4 46-.1 25.4-1.2 31.3-8.8 47-5.6 11.8-10.9 18.6-24.8 32.2-23.3 22.7-39.2 29.4-73.6 31.2-13.9.7-17.9 1.3-24 3.4-10.6 3.7-17.6 8.2-26.3 16.7-6.1 6.1-8.5 9.5-12.3 17-10 20.3-10 40.3.1 61 3.7 7.6 6 10.9 12.2 17 14.8 14.6 30.9 20.8 54.6 21 15.7.1 34.4 6 48.4 15.4 8.3 5.6 30.4 26.9 36.9 35.6 7.5 10.2 13.3 23.9 16.3 38.5.7 3.4 1.2 13.9 1.3 24 0 15.3-.3 19.1-2.1 25.6-4.9 17.6-11.2 27.8-27.8 44.8-16.5 16.9-26.5 23.7-42.5 28.9-10.8 3.5-15.8 4.3-33.5 5.1-14.5.7-18.2 1.2-25 3.5-10.8 3.7-18.6 8.7-27.1 17.1-26.8 27.1-25.4 71.2 3.2 97.3 12.5 11.5 28.1 17.6 45.4 17.6 12.9 0 18.8-1.3 30.9-7.1 17-8.1 30.8-24.9 35.6-43.3 1.1-4.1 2-13.1 2.5-24.5.7-15 1.2-19.5 3.4-26.8 5.3-17.7 11.6-27.5 28.8-44.3 13.6-13.3 18.4-17 29.2-21.9 12.8-5.9 20.3-7.6 39.6-8.5 9.6-.4 20.6-1.5 24.4-2.4 19.2-4.5 35.5-17.7 44.7-36.1 5.3-10.7 7.2-20.3 6.6-33-1.3-28.2-19-51.9-45.9-61.2-6.6-2.3-9.5-2.6-28.8-3.3-17.4-.6-22.9-1.2-29-3-30.7-8.8-58.6-35.3-69-65.6-3.9-11.3-4.9-20.5-4.5-43.4.4-24.2 1.7-31.5 8-44.9 9.8-20.5 32.2-43 53-53.1 14.7-7.1 19.9-8.2 41-8.6 14.1-.3 19.6-.8 25.4-2.5 11.8-3.2 20.5-8.3 29.7-17.4 13.3-13.1 19.2-26.2 20.1-44.5.6-13.3-1.2-22.6-6.8-34-5.5-11-17.9-23.8-28.4-29.2-11.1-5.7-16.3-6.9-34.9-7.8-18-1-24.3-1.9-34.6-5.2-15.7-5-25.9-11.9-42.1-28.5-16.1-16.4-21.5-25-26.5-42-2.1-7.1-2.7-12.1-3.4-26.3-1-21.3-1.9-26-7.5-37.5-12.5-26-39.7-40.6-69.3-37.4z"/><path d="M411.6 358.5c-19.1 4.8-36.2 18.9-44.7 37-9.3 19.6-9 39.4.8 59.5 9.9 20.3 29.9 34.3 52.9 36.8 51.2 5.7 89.7-43.9 71.4-92.1-6.6-17.5-21.5-31.9-40.4-39-7.2-2.7-9.5-3.1-21.1-3.3-9.1-.2-14.8.1-18.9 1.1zM588.2 536c-12 3.2-20.6 8.3-30.3 18-6.9 6.8-9.4 10.1-12.7 17-6.2 12.6-7.5 19.1-7 33.5.4 9.8 1 13.3 3.2 19.3 6.6 17.8 18.1 30.7 34.6 38.8 9.3 4.6 18.6 6.7 30 6.7 11.6 0 19.7-2 31-7.4 6.9-3.4 10.1-5.8 17-12.8 9.1-9.2 13.3-15.9 17.2-27.6 1.9-5.9 2.3-9 2.3-20-.1-11.4-.4-14-2.8-21.1-6.6-19.9-22.6-35.9-42.9-43.1-10.1-3.6-28.8-4.3-39.6-1.3zM411.4 713c-25.4 6.6-44.5 26.7-49.8 52.3-3.2 15.2-1.3 28.8 6 43.7 12.7 25.7 40.9 40.8 69.2 37 16.2-2.1 28.2-8.1 40.2-20 13-12.9 19.4-28.5 19.4-47 0-26.5-13.1-48.1-36.6-60.5-13.9-7.4-33.1-9.5-48.4-5.5z"/></svg>