<svg width="0" height="0">
  <defs>
    <clipPath id="hexaClip">
      <path d="M577.432,539.189 C548.074,555.741 305.923,692.154 305.923,692.154 C305.923,692.154 63.772,555.741 34.414,539.189 C5.057,522.639 -0.002,485.653 -0.002,485.653 C-0.002,485.653 -0.002,218.641 -0.002,202.670 C-0.002,186.699 11.470,172.077 11.470,172.077 C11.470,172.077 20.958,156.278 53.535,137.660 C86.111,119.043 271.507,11.465 271.507,11.465 C271.507,11.465 291.244,-0.007 305.923,-0.007 C320.602,-0.007 340.340,11.465 340.340,11.465 C340.340,11.465 525.735,119.043 558.312,137.660 C590.889,156.278 600.377,172.077 600.377,172.077 C600.377,172.077 611.849,186.699 611.849,202.670 C611.849,218.641 611.849,485.653 611.849,485.653 C611.849,485.653 606.790,522.639 577.432,539.189 Z" class="cls-1"/>
    </clipPath>
  </defs>
</svg>
