<svg id="Layer_1" data-name="Layer 1" xmlns="http://www.w3.org/2000/svg" xmlns:xlink="http://www.w3.org/1999/xlink" viewBox="0 0 324.11 367.52"><defs><style>.cls-1{fill-rule:evenodd;fill:url(#linear-gradient);}</style><linearGradient id="linear-gradient" x1="959.94" y1="2202.24" x2="959.95" y2="2568.62" gradientUnits="userSpaceOnUse"><stop offset="0" stop-color="#eff9fe"/><stop offset="0.11" stop-color="#f3fbfe"/><stop offset="0.46" stop-color="#fcfeff"/><stop offset="1" stop-color="#fff"/></linearGradient></defs><title>Hexagon_Gradient</title><path class="cls-1" d="M1122,2310.2c0-8.48-6.21-16.58-6.21-16.58l-3.67,2.14,3.49-2.14s-4.38-9.05-21.69-18.94-115.17-66.35-115.17-66.35-11.15-6.09-19-6.09-17.63,6.09-17.63,6.09-98.52,57.13-115.83,67S804,2293.62,804,2293.62l.24.15-.26-.15s-5.89,8.1-5.89,16.58-.19,149.92-.19,149.92-.06,18.1,18.25,28.43l143.66,81v.18l.16-.09.15.09v-.17c6.9-3.87,128.59-72.21,143.53-81,19.2-11.36,18.23-28.43,18.23-28.43S1122,2318.68,1122,2310.2Z" transform="translate(-797.89 -2202.24)"/></svg>