<?xml version="1.0" encoding="utf-8"?>
<!-- Generator: Adobe Illustrator 17.1.0, SVG Export Plug-In . SVG Version: 6.00 Build 0)  -->
<!DOCTYPE svg PUBLIC "-//W3C//DTD SVG 1.1//EN" "http://www.w3.org/Graphics/SVG/1.1/DTD/svg11.dtd">
<svg version="1.1" id="Layer_1" xmlns="http://www.w3.org/2000/svg" xmlns:xlink="http://www.w3.org/1999/xlink" x="0px" y="0px"
	 viewBox="0 0 721.4 185.8" enable-background="new 0 0 721.4 185.8" xml:space="preserve">
<g id="LOGO_1_">
	<path fill="#DF1F36" d="M121.6,149.8c-23.3,0-41.1-6.5-53.3-19.5C56,117.3,49.9,98.9,49.9,75c0-11.9,1.9-22.5,5.6-31.8
		c3.7-9.3,8.8-17.2,15.3-23.6C77.3,13.2,85.1,8.3,94,5c9-3.3,18.7-5,29.2-5c6.1,0,11.6,0.5,16.6,1.3c5,0.9,9.3,1.9,13.1,3.1
		c3.7,1.2,6.8,2.4,9.3,3.6c2.5,1.2,4.3,2.2,5.4,2.9l-9.3,26.1c-4.4-2.3-9.6-4.3-15.4-6c-5.9-1.7-12.5-2.5-20-2.5
		c-5,0-9.8,0.8-14.6,2.5c-4.8,1.7-9,4.3-12.6,8c-3.7,3.7-6.6,8.4-8.8,14.2c-2.2,5.8-3.3,12.8-3.3,21.1c0,6.6,0.7,12.8,2.2,18.5
		c1.4,5.7,3.8,10.7,7,14.8c3.2,4.1,7.5,7.4,12.7,9.8c5.2,2.4,11.6,3.6,19.1,3.6c4.7,0,8.9-0.3,12.6-0.8c3.7-0.6,7-1.2,9.9-2
		c2.9-0.8,5.5-1.6,7.7-2.6c2.2-1,4.2-1.9,6-2.7l8.9,25.9c-4.6,2.8-11,5.2-19.3,7.5C142.1,148.7,132.5,149.8,121.6,149.8z"/>
	<path fill="#DF1F36" d="M225.6,35c9.1,0,16.7,1,22.8,3.1c6.1,2.1,10.9,5.1,14.6,9c3.7,3.9,6.2,8.6,7.8,14.2
		c1.5,5.6,2.3,11.7,2.3,18.5v64.6c-4.4,1-10.6,2.1-18.4,3.4c-7.9,1.3-17.4,2-28.6,2c-7,0-13.4-0.6-19.2-1.9
		c-5.7-1.2-10.7-3.3-14.8-6.1c-4.1-2.8-7.3-6.6-9.5-11.1c-2.2-4.6-3.3-10.2-3.3-16.9c0-6.4,1.3-11.8,3.8-16.2c2.6-4.4,6-8,10.3-10.6
		c4.3-2.6,9.2-4.5,14.7-5.7c5.5-1.2,11.3-1.8,17.2-1.8c4,0,7.6,0.2,10.7,0.5c3.1,0.3,5.6,0.8,7.6,1.4v-2.9c0-5.3-1.6-9.5-4.8-12.7
		c-3.2-3.2-8.7-4.8-16.6-4.8c-5.2,0-10.4,0.4-15.5,1.1c-5.1,0.8-9.5,1.8-13.3,3.2l-3.9-25c1.8-0.6,4-1.1,6.7-1.8
		c2.7-0.6,5.6-1.2,8.8-1.7c3.2-0.5,6.5-0.9,10-1.3C218.4,35.2,222,35,225.6,35z M228,125.8c3,0,5.9-0.1,8.7-0.2
		c2.8-0.1,5-0.3,6.6-0.6v-23.5c-1.2-0.3-3.1-0.5-5.6-0.8c-2.5-0.3-4.8-0.4-6.8-0.4c-2.9,0-5.6,0.2-8.2,0.5c-2.6,0.3-4.8,1-6.7,2
		c-1.9,1-3.5,2.3-4.6,4c-1.1,1.7-1.7,3.8-1.7,6.3c0,4.9,1.6,8.2,4.9,10.1C217.9,124.9,222.4,125.8,228,125.8z"/>
	<path fill="#DF1F36" d="M323.1,124.7c5.7,0,9.7-0.5,12-1.7c2.3-1.1,3.5-3.2,3.5-6.4c0-2.5-1.5-4.7-4.6-6.5c-3-1.9-7.7-4-13.9-6.3
		c-4.8-1.8-9.2-3.7-13.2-5.6c-3.9-1.9-7.3-4.2-10-6.9c-2.8-2.7-4.9-5.9-6.4-9.6c-1.5-3.7-2.3-8.2-2.3-13.5
		c0-10.2,3.8-18.3,11.4-24.2c7.6-5.9,18-8.9,31.3-8.9c6.6,0,13,0.6,19.1,1.8c6.1,1.2,10.9,2.5,14.5,3.8l-5.4,24
		c-3.6-1.2-7.5-2.3-11.7-3.3c-4.2-1-8.9-1.5-14.2-1.5c-9.7,0-14.5,2.7-14.5,8.1c0,1.2,0.2,2.4,0.6,3.3c0.4,1,1.2,1.9,2.5,2.8
		c1.2,0.9,2.9,1.9,5.1,2.9c2.1,1,4.9,2.2,8.2,3.4c6.8,2.5,12.4,5,16.8,7.4c4.4,2.4,7.9,5.1,10.5,7.9c2.6,2.8,4.3,6,5.4,9.4
		c1,3.4,1.6,7.4,1.6,12c0,10.8-4,18.9-12.1,24.4c-8.1,5.5-19.5,8.3-34.3,8.3c-9.7,0-17.7-0.8-24.1-2.5c-6.4-1.7-10.9-3-13.4-4.2
		l5.2-25.1c5.3,2.1,10.6,3.7,16.2,4.9C312.3,124.1,317.7,124.7,323.1,124.7z"/>
	<path fill="#DF1F36" d="M381.8,10.8l30.9-5v32.1h37.1v25.7h-37.1v38.3c0,6.5,1.1,11.7,3.4,15.5c2.3,3.9,6.9,5.8,13.8,5.8
		c3.3,0,6.7-0.3,10.3-0.9c3.5-0.6,6.7-1.5,9.6-2.6l4.4,24c-3.7,1.5-7.9,2.8-12.4,3.9c-4.6,1.1-10.2,1.7-16.8,1.7
		c-8.4,0-15.4-1.1-20.9-3.4c-5.5-2.3-9.9-5.5-13.3-9.5c-3.3-4.1-5.6-9-6.9-14.8c-1.3-5.8-2-12.2-2-19.3V10.8z"/>
	<path fill="#DF1F36" d="M499.6,146.9h-30.9v-109h30.9V146.9z"/>
	<path fill="#DF1F36" d="M518.6,41.6c5.2-1.5,12-2.9,20.3-4.2c8.3-1.3,17-2,26.1-2c9.2,0,16.9,1.2,23.1,3.6
		c6.1,2.4,11,5.8,14.6,10.3c3.6,4.4,6.1,9.7,7.7,15.7c1.5,6.1,2.3,12.8,2.3,20.3v61.5h-30.9V89.1c0-9.9-1.3-17-3.9-21.1
		c-2.6-4.1-7.5-6.2-14.7-6.2c-2.2,0-4.6,0.1-7,0.3c-2.5,0.2-4.7,0.4-6.6,0.7v84.1h-30.9V41.6z"/>
	<path fill="#DF1F36" d="M721.4,133.2c0,17.8-4.5,31-13.6,39.7c-9,8.6-23,12.9-41.9,12.9c-6.6,0-13.3-0.6-19.9-1.8
		c-6.6-1.2-12.8-2.7-18.4-4.7l5.4-25.9c4.8,1.9,9.9,3.5,15.2,4.6c5.3,1.1,11.4,1.7,18.1,1.7c8.8,0,15.1-1.9,18.8-5.8
		c3.7-3.9,5.5-8.8,5.5-14.9v-3.9c-3.3,1.5-6.7,2.7-10.3,3.4c-3.5,0.8-7.4,1.1-11.5,1.1c-15.1,0-26.6-4.5-34.6-13.4
		c-8-8.9-12-21.4-12-37.4c0-8,1.2-15.3,3.7-21.9c2.5-6.6,6.1-12.2,10.9-16.9c4.8-4.7,10.6-8.3,17.5-10.9c6.9-2.6,14.7-3.8,23.4-3.8
		c3.7,0,7.6,0.2,11.5,0.5c3.9,0.3,7.8,0.8,11.7,1.3c3.9,0.6,7.6,1.2,11.1,2c3.5,0.8,6.7,1.6,9.4,2.4V133.2z M653.6,88.9
		c0,17.3,7,25.9,20.9,25.9c3.2,0,6.1-0.4,8.9-1.2c2.8-0.8,5.1-1.8,7-2.9V61.3c-1.5-0.3-3.3-0.5-5.4-0.7c-2.1-0.2-4.5-0.3-7.2-0.3
		c-8.2,0-14.2,2.7-18.2,8.1C655.6,73.7,653.6,80.6,653.6,88.9z"/>
	<polygon fill="#DF1F36" points="0,85.1 30.9,80.1 30.9,146.9 0,146.9 	"/>
	<path fill="#DF1F36" d="M30.9,36.4c-4.4-0.9-9.2-1.4-14.5-1.4c-0.3,0-0.6,0-0.9,0c-0.3,0-0.6,0-0.9,0C9.2,35,4.4,35.5,0,36.4
		l0,29.4l30.9-4.9L30.9,36.4z"/>
</g>
</svg>
