<?xml version="1.0" encoding="utf-8"?>
<svg version="1.1" id="Layer_1" xmlns="http://www.w3.org/2000/svg" xmlns:xlink="http://www.w3.org/1999/xlink" x="0px" y="0px"
	 viewBox="0 0 174 174.8" style="enable-background:new 0 0 174 174.8;" xml:space="preserve">
<style type="text/css">
	.st0{clip-path:url(#SVGID_2_);fill:#00112a;}
</style>
	<g>
		<defs>
			<rect id="SVGID_1_" width="174" height="174.8"/>
		</defs>
		<clipPath id="SVGID_2_">
			<use xlink:href="#SVGID_1_"  style="overflow:visible;"/>
		</clipPath>
		<path class="st0" d="M43.1,23.4c6.4,0,11.7-5.2,11.7-11.7c0-6.4-5.2-11.7-11.7-11.7S31.4,5.3,31.4,11.7
			C31.4,18.2,36.6,23.4,43.1,23.4"/>
		<path class="st0" d="M102.9,23.4c6.4,0,11.7-5.2,11.7-11.7c0-6.4-5.2-11.7-11.7-11.7c-6.4,0-11.7,5.2-11.7,11.7
			C91.2,18.2,96.4,23.4,102.9,23.4"/>
		<path class="st0" d="M135.2,23.1c4.4-1,7.9-4.7,8.7-9.1c1.5-8.2-5.5-15.2-13.7-13.7c-4.5,0.8-8.1,4.4-9.1,8.8
			c-0.2,1.1-0.3,2.1-0.3,3.1c0.2,4.4-1.3,8.7-4.4,11.9l-1.8,1.8c-3,3-7.1,4.6-11.4,4.4c-0.2,0-0.4,0-0.6,0c-0.2,0-0.4,0-0.6,0
			c-4.2,0.2-8.4-1.4-11.4-4.4L88.9,24c-3.1-3.1-4.6-7.5-4.4-11.9c0-1,0-2-0.3-3.1c-1-4.4-4.6-8-9.1-8.8c-7.4-1.4-13.9,4.3-13.9,11.4
			c0,0.2,0,0.4,0,0.6c0.2,4.2-1.4,8.4-4.4,11.4l-2.2,2.2c-3,3-7.1,4.5-11.3,4.4c-0.1,0-0.1,0-0.2,0c-0.1,0-0.3,0-0.4,0l-0.1,0.1
			c-0.2,0-0.4,0-0.5,0c-4.5,0.2-8.9-1.2-12-4.4l-0.3-0.3l0,0l-2.1-2.1c-3-3-4.5-7.2-4.4-11.5c0-1-0.1-2-0.3-3.1
			c-1-4.4-4.7-7.8-9.1-8.6C5.7-1.2-1.3,5.8,0.2,14c0.9,4.5,4.4,8.2,8.9,9.1c1.1,0.2,2.1,0.3,3.1,0.3c4.5-0.2,8.9,1.2,12,4.4l0.3,0.3
			l0,0l2.1,2.1c3,3,4.5,7.2,4.4,11.5c0,1,0.1,2,0.3,3.1c1,4.4,4.7,7.8,9.1,8.6c1.1,0.2,2.2,0.2,3.3,0.2c6.2-0.3,11.1-5.4,11.1-11.6
			c0-0.3,0-0.7,0-1c-0.4-4.5,1.5-8.9,4.7-12.2l0.9-0.9c3.1-3.1,7.3-4.9,11.6-4.5c0.3,0,0.6,0,1,0c0.2,0,0.4,0,0.6,0
			c4.2-0.2,8.4,1.4,11.4,4.4l1.8,1.8c3.1,3.1,4.6,7.5,4.4,11.9c0,1,0,2,0.3,3.1c1,4.4,4.6,8,9.1,8.8c7.4,1.4,13.9-4.3,13.9-11.4
			c0-0.3,0-0.6,0-1c-0.4-4.3,1.4-8.5,4.5-11.5l1.6-1.6c3.1-3.1,7.3-4.5,11.7-4.4C133.1,23.4,134.2,23.3,135.2,23.1"/>
		<path class="st0" d="M72.8,144.6c6.4,0,11.7-5.2,11.7-11.7c0-6.4-5.2-11.7-11.7-11.7c-6.4,0-11.7,5.2-11.7,11.7
			C61.1,139.4,66.4,144.6,72.8,144.6"/>
		<path class="st0" d="M72.8,84.1c6.4,0,11.7-5.2,11.7-11.7c0-6.4-5.2-11.7-11.7-11.7c-6.4,0-11.7,5.2-11.7,11.7
			C61.1,78.9,66.4,84.1,72.8,84.1"/>
		<path class="st0" d="M102.9,91.1c-6.4,0-11.7,5.2-11.7,11.7c0,6.4,5.2,11.7,11.7,11.7c6.4,0,11.7-5.2,11.7-11.7
			C114.6,96.3,109.4,91.1,102.9,91.1"/>
		<path class="st0" d="M102.9,121.3c-0.3,0-0.7,0-1,0c-4.6,0.4-9-1.5-12.3-4.8l-0.4-0.4c-3.3-3.3-5.2-7.8-4.8-12.4c0-0.3,0-0.7,0-1
			c0-0.3,0-0.7,0-1c-0.4-4.3,1.5-8.6,4.5-11.6l1.5-1.5c3-3,7.2-4.9,11.5-4.5c0.3,0,0.6,0,1,0c7.2,0,12.8-6.5,11.4-13.9
			c-0.8-4.5-4.3-8.1-8.8-9.1c-1.1-0.2-2.1-0.3-3.1-0.3c-4.4,0.2-8.7-1.3-11.8-4.4l-1.9-1.9c-3.1-3.1-4.5-7.4-4.4-11.8
			c0-1-0.1-2-0.3-3.1c-1-4.4-4.6-8-9.1-8.8c-8.2-1.5-15.2,5.5-13.7,13.7c0.8,4.5,4.3,8.1,8.7,9.1c1.1,0.2,2.1,0.3,3.1,0.3
			c4.4-0.2,8.6,1.3,11.7,4.4l2,2c3,3,4.7,7.1,4.4,11.4c0,0.3,0,0.5,0,0.8c0,0.2,0,0.4,0,0.6c0.2,4.2-1.4,8.4-4.4,11.4l-2.2,2.2
			c-3.1,3.1-7.3,4.5-11.6,4.4c-1,0-2,0.1-3.1,0.3c-4.4,1-7.8,4.6-8.7,9c-1.4,7.4,4.3,13.9,11.4,13.9h0.1c4.2,0,8.3,1.4,11.3,4.4
			l2.7,2.7c3,3,4.5,7.1,4.4,11.3c0,0,0,0.1,0,0.1c0,0.3,0,0.5,0,0.8c0.3,4.2-1.4,8.4-4.4,11.4l-2.1,2.1c-3.1,3.1-7.3,4.5-11.7,4.4
			c-1,0-2,0.1-3.1,0.3c-4.4,1-7.9,4.7-8.7,9.1c-1.5,8.2,5.5,15.2,13.7,13.7c4.5-0.8,8.1-4.4,9.1-8.8c0.2-1.1,0.3-2.1,0.3-3.1
			c-0.2-4.4,1.3-8.7,4.4-11.8l1.9-1.9c3.1-3.1,7.4-4.5,11.8-4.4c1,0,2-0.1,3.1-0.3c4.4-1,7.9-4.6,8.8-9.1
			C115.8,127.8,110.1,121.3,102.9,121.3"/>
		<path class="st0" d="M162.3,0.1C162.3,0.1,162.3,0.1,162.3,0.1c-0.1,0-0.1,0-0.1,0c-6.4,0-11.7,5.2-11.7,11.7c0,0.1,0,0.3,0,0.4
			c0.1,4.2-1.4,8.4-4.4,11.4l-2.3,2.3c-3,3-7,4.4-11.2,4.4c-0.7,0-1.5,0.1-2.3,0.2c-4.6,0.9-8.4,4.6-9.2,9.2
			c-1.5,8.2,5.5,15.3,13.7,13.7c4.6-0.9,8.2-4.5,9.2-9.1c0.2-1.1,0.3-2.1,0.2-3.1c-0.3-4.6,1.1-9.1,4.3-12.3l0.8-0.8
			c3.1-3.1,7.5-5,11.9-4.6c0.3,0,0.7,0,1,0c0,0,0,0,0.1,0c0,0,0,0,0.1,0c6.4,0,11.7-5.2,11.7-11.7C174,5.3,168.8,0.1,162.3,0.1"/>
	</g>
</svg>
