<?xml version="1.0" encoding="utf-8"?>
<!-- Generator: Adobe Illustrator 19.1.0, SVG Export Plug-In . SVG Version: 6.00 Build 0)  -->
<svg version="1.0" id="Layer_1" xmlns="http://www.w3.org/2000/svg" xmlns:xlink="http://www.w3.org/1999/xlink" x="0px" y="0px"
	 viewBox="0 0 392.6 143.8" enable-background="new 0 0 392.6 143.8" xml:space="preserve">
<g>
	<defs>
		<rect id="SVGID_1_" width="392.6" height="143.8"/>
	</defs>
	<clipPath id="SVGID_2_">
		<use xlink:href="#SVGID_1_"  overflow="visible"/>
	</clipPath>
	<path clip-path="url(#SVGID_2_)" fill="#0552E2" d="M176.4,94.9V55h-15.5c-3.5,0-6.1-2.6-6.1-6.1c0-3.3,2.6-6,6.1-6h42.9
		c1.6,0,3.1,0.6,4.3,1.8c1.2,1.2,1.8,2.6,1.8,4.3c0,1.6-0.6,3.1-1.8,4.2c-1.2,1.2-2.6,1.8-4.3,1.8h-15.5v39.8c0,1.6-0.6,3.1-1.8,4.3
		c-1.1,1.2-2.6,1.8-4.3,1.8C178.8,100.9,176.4,98.4,176.4,94.9"/>
	<path clip-path="url(#SVGID_2_)" fill="#0552E2" d="M224.7,100.3c-1.5,0-2.9-0.6-4.1-1.8c-1.2-1.2-1.7-2.6-1.7-4.2V48.9
		c0-1.6,0.6-3.1,1.8-4.3c1.1-1.2,2.6-1.8,4.3-1.8c3.5,0,6.1,2.7,6.1,6v39.3l27.6,0.1c3.5,0,6.1,2.7,6.1,6c0,3.5-2.6,6-6.1,6H224.7z"
		/>
	<path clip-path="url(#SVGID_2_)" fill="#0552E2" d="M277.6,99c-1.3-1.2-1.9-2.6-1.9-4.4V70.8c0-8.1,2.3-14.6,6.8-19.8
		c4.8-5.4,11.2-8.1,19.2-8.1c8.3,0,14.9,2.7,19.7,8.1c4.8,5.3,7.1,12.2,7.1,20.8v22.8c0,1.7-0.6,3.2-1.8,4.4
		c-1.3,1.2-2.8,1.8-4.5,1.8c-1.8,0-3.2-0.6-4.4-1.8c-1.3-1.2-1.9-2.6-1.9-4.4V71.9c0-5-1.3-9-3.7-11.9c-2.5-3-5.9-4.5-10.2-4.5
		c-8.8,0-13.8,5.6-13.8,16.3v22.9c0,1.8-0.6,3.2-1.9,4.4C284,101.4,280.2,101.4,277.6,99"/>
	<path clip-path="url(#SVGID_2_)" fill="#0552E2" d="M359,94.9V55h-15.5c-3.5,0-6.1-2.6-6.1-6.1c0-3.3,2.6-6,6.1-6h42.9
		c1.6,0,3.1,0.6,4.3,1.8c1.2,1.2,1.8,2.6,1.8,4.3c0,1.6-0.6,3.1-1.8,4.2c-1.2,1.2-2.6,1.8-4.3,1.8H371v39.8c0,1.6-0.6,3.1-1.8,4.3
		c-1.1,1.2-2.6,1.8-4.3,1.8C361.5,100.9,359,98.4,359,94.9"/>
	<path clip-path="url(#SVGID_2_)" fill="#0552E2" d="M35.4,19.2c5.3,0,9.6-4.3,9.6-9.6s-4.3-9.6-9.6-9.6s-9.6,4.3-9.6,9.6
		S30.1,19.2,35.4,19.2"/>
	<path clip-path="url(#SVGID_2_)" fill="#0552E2" d="M84.6,19.2c5.3,0,9.6-4.3,9.6-9.6s-4.3-9.6-9.6-9.6c-5.3,0-9.6,4.3-9.6,9.6
		S79.3,19.2,84.6,19.2"/>
	<path clip-path="url(#SVGID_2_)" fill="#0552E2" d="M111.2,19c3.6-0.8,6.5-3.8,7.2-7.5c1.2-6.7-4.5-12.5-11.3-11.2
		c-3.7,0.7-6.7,3.6-7.5,7.2c-0.2,0.9-0.3,1.7-0.2,2.5c0.1,3.6-1,7.2-3.6,9.8l-1.5,1.5c-2.5,2.5-5.9,3.8-9.4,3.6c-0.2,0-0.3,0-0.5,0
		c-0.2,0-0.3,0-0.5,0c-3.5,0.2-6.9-1.1-9.4-3.6l-1.5-1.5c-2.6-2.6-3.8-6.1-3.6-9.8c0-0.8,0-1.7-0.2-2.5c-0.8-3.7-3.8-6.6-7.5-7.3
		C55.7-1,50.4,3.7,50.4,9.6c0,0.2,0,0.3,0,0.5c0.2,3.5-1.1,6.9-3.6,9.4l-1.8,1.8c-2.5,2.5-5.8,3.7-9.3,3.6c-0.1,0-0.1,0-0.2,0
		c-0.1,0-0.2,0-0.3,0l0,0c-0.1,0-0.3,0-0.4,0c-3.7,0.2-7.3-1-9.9-3.6l-0.2-0.2l0,0l-1.7-1.7c-2.5-2.5-3.7-5.9-3.6-9.5
		c0-0.8-0.1-1.7-0.3-2.5c-0.9-3.6-3.8-6.4-7.5-7.1C4.7-1-1.1,4.8,0.2,11.5c0.7,3.7,3.6,6.7,7.3,7.5c0.9,0.2,1.7,0.3,2.6,0.2
		c3.7-0.2,7.3,1,9.9,3.6l0.2,0.2l0,0l1.7,1.7c2.5,2.5,3.7,5.9,3.6,9.5c0,0.8,0.1,1.7,0.3,2.5c0.9,3.6,3.8,6.4,7.5,7.1
		c0.9,0.2,1.8,0.2,2.7,0.1c5.1-0.2,9.1-4.4,9.1-9.6c0-0.3,0-0.6,0-0.8c-0.3-3.7,1.2-7.4,3.9-10l0.8-0.8c2.5-2.5,6-4,9.5-3.7
		c0.3,0,0.5,0,0.8,0c0.2,0,0.4,0,0.5,0c3.5-0.2,6.9,1.1,9.4,3.6l1.5,1.5c2.6,2.6,3.8,6.2,3.6,9.8c0,0.8,0,1.7,0.2,2.5
		c0.8,3.7,3.8,6.6,7.5,7.3c6.1,1.2,11.5-3.5,11.5-9.4c0-0.3,0-0.5,0-0.8c-0.3-3.5,1.2-7,3.7-9.5l1.3-1.3c2.5-2.5,6-3.7,9.6-3.6
		C109.5,19.3,110.4,19.2,111.2,19"/>
	<path clip-path="url(#SVGID_2_)" fill="#0552E2" d="M59.9,118.9c5.3,0,9.6-4.3,9.6-9.6c0-5.3-4.3-9.6-9.6-9.6
		c-5.3,0-9.6,4.3-9.6,9.6C50.3,114.6,54.6,118.9,59.9,118.9"/>
	<path clip-path="url(#SVGID_2_)" fill="#0552E2" d="M59.9,69.2c5.3,0,9.6-4.3,9.6-9.6c0-5.3-4.3-9.6-9.6-9.6
		c-5.3,0-9.6,4.3-9.6,9.6C50.3,64.9,54.6,69.2,59.9,69.2"/>
	<path clip-path="url(#SVGID_2_)" fill="#0552E2" d="M84.7,74.9c-5.3,0-9.6,4.3-9.6,9.6c0,5.3,4.3,9.6,9.6,9.6
		c5.3,0,9.6-4.3,9.6-9.6C94.3,79.2,90,74.9,84.7,74.9"/>
	<path clip-path="url(#SVGID_2_)" fill="#0552E2" d="M84.7,99.8c-0.3,0-0.6,0-0.8,0c-3.8,0.3-7.4-1.3-10.1-3.9l-0.3-0.3
		c-2.7-2.7-4.3-6.4-4-10.2c0-0.3,0-0.6,0-0.9c0-0.3,0-0.5,0-0.8c-0.3-3.6,1.2-7.1,3.7-9.6l1.2-1.2c2.5-2.5,6-4,9.5-3.7
		c0.3,0,0.5,0,0.8,0c5.9,0,10.6-5.3,9.4-11.4c-0.7-3.7-3.6-6.6-7.2-7.5C86,50.1,85.2,50,84.3,50c-3.6,0.1-7.1-1.1-9.7-3.6l-1.6-1.6
		c-2.6-2.6-3.7-6.1-3.6-9.7c0-0.8,0-1.7-0.2-2.6c-0.8-3.7-3.8-6.6-7.5-7.2c-6.7-1.3-12.5,4.5-11.3,11.2c0.7,3.7,3.6,6.7,7.2,7.5
		c0.9,0.2,1.7,0.3,2.6,0.3c3.6-0.1,7.1,1.1,9.6,3.6l1.7,1.7c2.5,2.5,3.9,5.9,3.6,9.4c0,0.2,0,0.4,0,0.7c0,0.2,0,0.3,0,0.5
		c0.2,3.5-1.1,6.9-3.6,9.4l-1.8,1.8c-2.5,2.5-6,3.7-9.5,3.6c-0.8,0-1.7,0.1-2.5,0.3C54,76,51.2,79,50.5,82.6
		c-1.2,6.1,3.5,11.5,9.4,11.5h0c3.5,0,6.8,1.2,9.3,3.6l2.2,2.2c2.5,2.5,3.7,5.8,3.6,9.3c0,0,0,0.1,0,0.1c0,0.2,0,0.4,0,0.6
		c0.2,3.5-1.1,6.9-3.6,9.4l-1.7,1.7c-2.5,2.5-6,3.7-9.6,3.6c-0.8,0-1.7,0.1-2.5,0.3c-3.6,0.8-6.5,3.8-7.2,7.5
		c-1.3,6.7,4.5,12.5,11.3,11.2c3.7-0.7,6.7-3.6,7.5-7.2c0.2-0.9,0.3-1.7,0.2-2.6c-0.1-3.6,1-7.2,3.6-9.7l1.6-1.6
		c2.6-2.6,6.1-3.7,9.7-3.6c0.8,0,1.7,0,2.6-0.2c3.6-0.8,6.5-3.8,7.2-7.5C95.2,105.1,90.6,99.8,84.7,99.8"/>
	<path clip-path="url(#SVGID_2_)" fill="#0552E2" d="M133.5,0.1C133.5,0.1,133.5,0.1,133.5,0.1c-0.1,0-0.1,0-0.1,0
		c-5.3,0-9.6,4.3-9.6,9.6c0,0.1,0,0.2,0,0.3c0.1,3.5-1.2,6.9-3.6,9.4l-1.9,1.9c-2.4,2.4-5.8,3.7-9.2,3.6c-0.6,0-1.2,0-1.9,0.2
		c-3.8,0.7-6.9,3.8-7.6,7.6c-1.3,6.7,4.5,12.5,11.3,11.3c3.7-0.7,6.8-3.7,7.5-7.5c0.2-0.9,0.2-1.7,0.2-2.6
		c-0.2-3.8,0.9-7.5,3.6-10.2l0.7-0.7c2.6-2.6,6.1-4.1,9.8-3.8c0.3,0,0.5,0,0.8,0c0,0,0,0,0.1,0c0,0,0,0,0.1,0c5.3,0,9.6-4.3,9.6-9.6
		C143.1,4.4,138.8,0.1,133.5,0.1"/>
</g>
</svg>
