<?xml version="1.0" encoding="utf-8"?>
<!-- Generator: Adobe Illustrator 19.0.0, SVG Export Plug-In . SVG Version: 6.00 Build 0)  -->
<svg version="1.1" id="Layer_1" xmlns="http://www.w3.org/2000/svg" xmlns:xlink="http://www.w3.org/1999/xlink" x="0px" y="0px"
	 viewBox="0 0 90 90" style="enable-background:new 0 0 90 90;" xml:space="preserve">
<style type="text/css">
	.st0{clip-path:url(#SVGID_2_);}
</style>
<g>
	<defs>
		<rect id="SVGID_1_" width="90" height="90"/>
	</defs>
	<clipPath id="SVGID_2_">
		<use xlink:href="#SVGID_1_"  style="overflow:visible;"/>
	</clipPath>
	<path class="st0" d="M70.1,43.5l-36.3-21c-0.5-0.3-1.2-0.3-1.7,0c-0.5,0.3-0.9,0.9-0.9,1.5v42c0,0.6,0.3,1.2,0.9,1.5
		c0.3,0.2,0.6,0.2,0.9,0.2c0.3,0,0.6-0.1,0.9-0.2l36.3-21c0.5-0.3,0.9-0.9,0.9-1.5C71,44.4,70.6,43.8,70.1,43.5 M34.6,63V27l31.2,18
		L34.6,63z"/>
	<path class="st0" d="M45,0C20.2,0,0,20.2,0,45s20.2,45,45,45s45-20.2,45-45S69.8,0,45,0 M45,86.5C22.1,86.5,3.5,67.9,3.5,45
		S22.1,3.5,45,3.5S86.5,22.1,86.5,45S67.9,86.5,45,86.5"/>
</g>
</svg>
