<svg version="1.1" id="Layer_1" xmlns="http://www.w3.org/2000/svg" xmlns:xlink="http://www.w3.org/1999/xlink" x="0px" y="0px"	 width="246" height="50" style="enable-background:new 117 168 246 50;" xml:space="preserve"><style type="text/css">	.st0{fill:url(#SVGID_1_);}</style><linearGradient id="SVGID_1_" gradientUnits="userSpaceOnUse" x1="117" y1="603" x2="363" y2="603" gradientTransform="matrix(1 0 0 -1 0 796)">	<stop  offset="0" style="stop-color:#2971E9"/>	<stop  offset="1" style="stop-color:#024CC7"/></linearGradient><path class="st0" d="M338,170c12.7,0,23,10.3,23,23c0,12.7-10.3,23-23,23H142c-12.7,0-23-10.3-23-23c0-12.7,10.3-23,23-23H338	 M338,168H142c-13.8,0-25,11.2-25,25c0,13.8,11.2,25,25,25h196c13.8,0,25-11.2,25-25C363,179.2,351.8,168,338,168L338,168z"/></svg>,0,0-50Z" transform="translate(-214 -239)"/></svg>
